<svg xmlns="http://www.w3.org/2000/svg" viewBox="0 0 1694.5 1009.08"><defs><style>.cls-1,.cls-3{fill:#0e0f1c;}.cls-1,.cls-2,.cls-3,.cls-4{stroke:#000;stroke-miterlimit:10;}.cls-2,.cls-4{fill:#fff;}.cls-2{stroke-width:2px;}.cls-3,.cls-4{stroke-width:0.5px;}</style></defs><g id="Слой_2" data-name="Слой 2"><rect class="cls-1" x="0.5" y="0.5" width="1693.5" height="1008.08"/><path class="cls-2" d="M315.46,474.42s13.07-296.5,331.1-431.67,562,117.73,562,117.73,448.72-69.77,479.21,130.81c53.85,296-718.82,566.83-805.95,601.71S97.64,1141.53,10.51,858.12C-24.34,670.63,315.46,474.42,315.46,474.42Z" transform="translate(0.55 1.04)"/></g><g id="Слой_6" data-name="Слой 6"><circle class="cls-3" cx="187.5" cy="821.4" r="52.28"/><circle class="cls-3" cx="544.73" cy="825.75" r="52.28"/><circle class="cls-3" cx="910.68" cy="734.27" r="52.28"/><circle class="cls-3" cx="1259.2" cy="568.72" r="52.28"/><circle class="cls-3" cx="1520.59" cy="346.54" r="52.28"/></g><g id="Слой_3" data-name="Слой 3"><path class="cls-1" d="M398.24,543.72S335.07,249.65,688,110.24c361.59-130.69,509.71,152.48,505.35,178.62s-43.56,117.63-365.95,235.25C409.13,650.45,398.24,543.72,398.24,543.72Z" transform="translate(0.55 1.04)"/><circle class="cls-4" cx="1074.05" cy="279.01" r="28.32"/><path class="cls-4" d="M735.87,180c1.25-32.65,65.34-47.92,139.41-43.57,95.84,8.72,183.91,59.55,152.47,95.85-39.21,39.2-56.63-26.14-165.54-30.5C801.77,198.58,736,233.59,735.87,180Z" transform="translate(0.55 1.04)"/></g></svg>