<svg xmlns="http://www.w3.org/2000/svg" viewBox="0 0 1693 1007"><defs><style>.cls-1,.cls-4,.cls-5{fill:#f8f7ff;}.cls-2{fill:#fff;}.cls-3,.cls-6{fill:#333;}.cls-3,.cls-4,.cls-5,.cls-6{stroke:#333;stroke-miterlimit:10;}.cls-3{stroke-width:2px;}.cls-4,.cls-6{stroke-width:0.5px;}</style></defs><g id="Слой_2" data-name="Слой 2"><rect class="cls-1" x="0.5" y="0.5" width="1692" height="1006"/><path class="cls-2" d="M1692.45,1V1006H1.45V1h1691m1-1H.45V1007h1693V0Z" transform="translate(-0.45 0)"/><path class="cls-3" d="M315.46,474.42s13.07-296.5,331.1-431.67,562,117.73,562,117.73,448.72-69.77,479.21,130.81c53.85,296-718.82,566.83-805.95,601.71S97.64,1141.53,10.51,858.12C-24.34,670.63,315.46,474.42,315.46,474.42Z" transform="translate(-0.45 0)"/></g><g id="Слой_6" data-name="Слой 6"><circle class="cls-4" cx="186.5" cy="820.35" r="52.28"/><circle class="cls-4" cx="543.73" cy="824.71" r="52.28"/><circle class="cls-4" cx="909.68" cy="733.22" r="52.28"/><circle class="cls-4" cx="1258.2" cy="567.68" r="52.28"/><circle class="cls-4" cx="1519.59" cy="345.49" r="52.28"/></g><g id="Слой_3" data-name="Слой 3"><path class="cls-5" d="M398.24,543.72S335.07,249.65,688,110.24c361.59-130.69,509.71,152.48,505.35,178.62s-43.56,117.63-365.95,235.25C409.13,650.45,398.24,543.72,398.24,543.72Z" transform="translate(-0.45 0)"/><circle class="cls-6" cx="1073.05" cy="277.97" r="28.32"/><path class="cls-6" d="M735.87,180c1.25-32.65,65.34-47.92,139.41-43.57,95.84,8.72,183.91,59.55,152.47,95.85-39.21,39.2-56.63-26.14-165.54-30.5C801.77,198.58,736,233.59,735.87,180Z" transform="translate(-0.45 0)"/></g></svg>